<svg width="930" height="1727" viewBox="0 0 930 1727" fill="none" xmlns="http://www.w3.org/2000/svg">
<path d="M15.5205 1548.34V326.755H765.087C847.539 326.755 915 400.05 915 489.633V1548.34C915 1637.92 847.539 1711.21 765.087 1711.21H165.434C82.9815 1711.21 15.5205 1637.92 15.5205 1548.34Z" fill="black" stroke="#FCD500" stroke-width="30"/>
<path d="M765.087 448.913H165.434C142.947 448.913 127.955 465.201 127.955 489.633V815.388C127.955 839.819 142.947 856.107 165.434 856.107H765.087C787.574 856.107 802.565 839.819 802.565 815.388V489.633C802.565 465.201 787.574 448.913 765.087 448.913Z" fill="black" stroke="#FCD500" stroke-width="46"/>
<path d="M277.869 1141.14H202.912C180.425 1141.14 165.434 1124.86 165.434 1100.42V1059.7C165.434 1035.27 180.425 1018.98 202.912 1018.98H277.869C300.356 1018.98 315.347 1035.27 315.347 1059.7V1100.42C315.347 1124.86 300.356 1141.14 277.869 1141.14ZM502.739 1141.14H427.782C405.295 1141.14 390.304 1124.86 390.304 1100.42V1059.7C390.304 1035.27 405.295 1018.98 427.782 1018.98H502.739C525.226 1018.98 540.217 1035.27 540.217 1059.7V1100.42C540.217 1124.86 525.226 1141.14 502.739 1141.14ZM727.609 1141.14H652.652C630.165 1141.14 615.174 1124.86 615.174 1100.42V1059.7C615.174 1035.27 630.165 1018.98 652.652 1018.98H727.609C750.096 1018.98 765.087 1035.27 765.087 1059.7V1100.42C765.087 1124.86 750.096 1141.14 727.609 1141.14ZM277.869 1344.74H202.912C180.425 1344.74 165.434 1328.45 165.434 1304.02V1263.3C165.434 1238.87 180.425 1222.58 202.912 1222.58H277.869C300.356 1222.58 315.347 1238.87 315.347 1263.3V1304.02C315.347 1328.45 300.356 1344.74 277.869 1344.74ZM502.739 1344.74H427.782C405.295 1344.74 390.304 1328.45 390.304 1304.02V1263.3C390.304 1238.87 405.295 1222.58 427.782 1222.58H502.739C525.226 1222.58 540.217 1238.87 540.217 1263.3V1304.02C540.217 1328.45 525.226 1344.74 502.739 1344.74ZM727.609 1344.74H652.652C630.165 1344.74 615.174 1328.45 615.174 1304.02V1263.3C615.174 1238.87 630.165 1222.58 652.652 1222.58H727.609C750.096 1222.58 765.087 1238.87 765.087 1263.3V1304.02C765.087 1328.45 750.096 1344.74 727.609 1344.74ZM277.869 1548.34H202.912C180.425 1548.34 165.434 1532.05 165.434 1507.62V1466.9C165.434 1442.47 180.425 1426.18 202.912 1426.18H277.869C300.356 1426.18 315.347 1442.47 315.347 1466.9V1507.62C315.347 1532.05 300.356 1548.34 277.869 1548.34ZM502.739 1548.34H427.782C405.295 1548.34 390.304 1532.05 390.304 1507.62V1466.9C390.304 1442.47 405.295 1426.18 427.782 1426.18H502.739C525.226 1426.18 540.217 1442.47 540.217 1466.9V1507.62C540.217 1532.05 525.226 1548.34 502.739 1548.34ZM727.609 1548.34H652.652C630.165 1548.34 615.174 1532.05 615.174 1507.62V1466.9C615.174 1442.47 630.165 1426.18 652.652 1426.18H727.609C750.096 1426.18 765.087 1442.47 765.087 1466.9V1507.62C765.087 1532.05 750.096 1548.34 727.609 1548.34Z" fill="black" stroke="#FCD500" stroke-width="45"/>
<path d="M165.434 326.755H15.5205V82.4388C15.5205 37.6475 49.251 1 90.4771 1C131.703 1 165.434 37.6475 165.434 82.4388V326.755Z" fill="black" stroke="#FCD500" stroke-width="0.182"/>
</svg>
